<?xml version="1.0" encoding="utf-8"?>
<!-- Generator: Adobe Illustrator 16.0.0, SVG Export Plug-In . SVG Version: 6.00 Build 0)  -->
<!DOCTYPE svg PUBLIC "-//W3C//DTD SVG 1.1//EN" "http://www.w3.org/Graphics/SVG/1.1/DTD/svg11.dtd">
<svg version="1.1" id="Layer_3" xmlns="http://www.w3.org/2000/svg" xmlns:xlink="http://www.w3.org/1999/xlink" x="0px" y="0px"
	 width="42px" height="32px" viewBox="0 0 42 32" enable-background="new 0 0 42 32" xml:space="preserve">
<g>
	<path id="divider-swirl-6-1" fill="#FF0000" d="M41.967,15.708c-0.154-0.581-0.786-1.018-1.473-1.018c-0.392,0-0.745,0.139-1.021,0.402
		c-0.291,0.274-0.43,0.573-0.412,0.886c0.016,0.278,0.155,0.502,0.278,0.647c-0.368,0.243-1.535,0.592-4.271-2.251
		c-1.582-1.647-4.127-2.71-6.487-2.71c-2.019,0-6.499,0.843-7.581,7.918c-1.082-7.075-5.563-7.918-7.582-7.918
		c-2.359,0-4.905,1.063-6.487,2.71c-2.737,2.846-3.906,2.495-4.271,2.251c0.123-0.146,0.263-0.369,0.278-0.647
		c0.018-0.313-0.121-0.611-0.411-0.886c-0.277-0.264-0.631-0.402-1.023-0.402c-0.687,0-1.319,0.437-1.471,1.017
		c-0.08,0.306-0.126,1.096,1.18,1.834c0.61,0.345,1.265,0.519,1.948,0.519c2.215,0,4.23-1.849,5.109-2.663
		c-0.069,0.743,0.173,1.824,0.8,2.766c0.842,1.266,2.089,1.869,3.612,1.636c1.461-0.224,2.377-0.716,2.723-1.464
		c0.282-0.611,0.162-1.372-0.349-2.202c-0.414-0.673-1.204-1.075-2.113-1.075c-0.806,0-1.491,0.319-1.666,0.775
		c-0.069,0.181-0.118,0.543,0.326,0.938c0.555,0.496,0.755,1.024,0.661,1.271c-0.014,0.037-0.052,0.137-0.259,0.137
		c-0.147,0-0.48-0.058-1.042-0.439c-0.917-0.627-1.343-1.857-1.013-2.928c0.384-1.249,1.618-1.905,3.433-1.773
		c5.013,0.39,6.625,4.876,6.464,7.613c-0.004,0.055,0.014,0.109,0.048,0.154l0.925,1.162c0.005,0.006,0.015,0.004,0.021,0.01
		c0.022,0.023,0.044,0.049,0.076,0.061c0.026,0.011,0.053,0.016,0.08,0.016s0.054-0.005,0.08-0.016
		c0.032-0.012,0.054-0.037,0.076-0.061c0.006-0.006,0.016-0.004,0.021-0.01l0.924-1.162c0.035-0.045,0.053-0.1,0.049-0.154
		c-0.16-2.737,1.451-7.224,6.465-7.613c1.808-0.132,3.049,0.524,3.433,1.773c0.331,1.07-0.096,2.301-1.013,2.928
		c-0.561,0.382-0.895,0.439-1.042,0.439c-0.206,0-0.244-0.1-0.259-0.137c-0.094-0.245,0.106-0.774,0.662-1.271
		c0.443-0.396,0.395-0.758,0.326-0.938c-0.176-0.456-0.859-0.775-1.666-0.775c-0.91,0-1.699,0.402-2.112,1.075
		c-0.512,0.83-0.632,1.591-0.35,2.202c0.346,0.748,1.261,1.24,2.724,1.464c1.519,0.229,2.77-0.37,3.61-1.633
		c0.62-0.933,0.864-2.001,0.79-2.778c0.874,0.809,2.896,2.673,5.121,2.673c0.683,0,1.337-0.174,1.947-0.519
		C42.092,16.803,42.046,16.013,41.967,15.708z"/>
	<path id="divider-swirl-6-2" fill="#FF0000" d="M21,13.832c0.053,0,0.104-0.022,0.14-0.06c1.358-1.399,2.138-3.544,2.138-5.885
		c0-2.341-0.779-4.485-2.138-5.885c-0.072-0.074-0.207-0.074-0.279,0c-1.358,1.398-2.137,3.543-2.137,5.885
		c0,2.341,0.779,4.486,2.137,5.885C20.896,13.81,20.947,13.832,21,13.832z"/>
	<path id="divider-swirl-6-3" fill="#FF0000" d="M21,29.832c0.053,0,0.104-0.022,0.14-0.06c1.358-1.399,2.138-3.544,2.138-5.885s-0.779-4.485-2.138-5.885
		c-0.072-0.074-0.207-0.074-0.279,0c-1.358,1.398-2.137,3.544-2.137,5.885s0.779,4.486,2.137,5.885
		C20.896,29.81,20.947,29.832,21,29.832z"/>
</g>
<script type="text/javascript">
    var color = window.location.hash;
    var ids = ['divider-swirl-6-1', 'divider-swirl-6-2', 'divider-swirl-6-3'];

    for (var i in ids) {
        var path = document.getElementById(ids[i]);

        if (typeof path == 'object') {
            path.setAttribute('fill', color);
        }
    };
</script>
</svg>