<?xml version="1.0" encoding="utf-8"?>
<!-- Generator: Adobe Illustrator 16.0.0, SVG Export Plug-In . SVG Version: 6.00 Build 0)  -->
<!DOCTYPE svg PUBLIC "-//W3C//DTD SVG 1.1//EN" "http://www.w3.org/Graphics/SVG/1.1/DTD/svg11.dtd">
<svg version="1.1" xmlns="http://www.w3.org/2000/svg" xmlns:xlink="http://www.w3.org/1999/xlink" x="0px" y="0px" width="42px"
	 height="32px" viewBox="0 0 42 32" enable-background="new 0 0 42 32" xml:space="preserve">
<g>
	<path id="divider-swirl-1" fill="#FF0000" d="M33.895,7.053c-3.993-0.368-6.227,1.356-9.276,4.491l-1.491-1.491c-0.602-0.602-1.161-1.173-1.669-1.724
		c1.188-1.374,2.047-2.671,2.237-3.863c0.296-1.854-0.72-3.632-2.692-3.632c-1.974,0-3.013,1.778-2.717,3.633
		c0.204,1.287,1.178,2.682,2.512,4.178c-0.617,0.689-1.374,1.475-2.313,2.413l-0.534,0.534c-3.35-3.502-5.611-5.472-9.847-5.083
		C2.098,7.06,0,12.515,0,15.729s2.098,8.669,8.104,9.222c3.994,0.366,6.228-1.358,9.277-4.494l1.492,1.491
		c0.602,0.604,1.162,1.173,1.667,1.724c-1.187,1.375-2.045,2.67-2.235,3.863c-0.297,1.854,0.72,3.633,2.692,3.632
		c1.972,0,3.013-1.778,2.716-3.632c-0.205-1.287-1.176-2.682-2.513-4.178c0.618-0.69,1.376-1.475,2.316-2.412l0.53-0.532
		c3.35,3.502,5.612,5.471,9.847,5.082C39.903,24.941,42,19.488,42,16.274C42,13.059,39.903,7.605,33.895,7.053z M19.255,4.798
		c-0.293-1.542,0.365-2.932,2.016-2.932c1.649,0,2.259,1.678,1.846,3.102c-0.292,1.013-0.838,1.937-1.856,3.144
		C20.216,6.949,19.46,5.873,19.255,4.798z M19.075,10.847c0.677-0.679,1.326-1.343,1.915-1.991c0.587,0.646,1.234,1.309,1.916,1.991
		l1.214,1.214c-0.862,0.901-1.794,1.9-2.854,2.995c-1.175-1.198-2.193-2.289-3.13-3.272L19.075,10.847z M21.933,15.731
		c1.084-1.085,2.021-2.08,2.875-2.982l1.346,1.346c0.683,0.681,1.346,1.329,1.99,1.916c-0.647,0.588-1.312,1.237-1.99,1.915
		L25.079,19C24.154,18.024,23.134,16.933,21.933,15.731z M20.067,16.271c-1.084,1.085-2.021,2.08-2.876,2.981l-1.345-1.346
		c-0.682-0.683-1.345-1.33-1.99-1.918c0.648-0.588,1.313-1.237,1.99-1.915l1.073-1.072C17.845,13.978,18.866,15.069,20.067,16.271z
		 M7.817,24.442c-5.326-0.489-7.184-5.323-7.184-8.171c0-2.85,1.857-7.683,7.184-8.173c3.836-0.353,5.838,1.473,8.917,4.708
		l-0.678,0.678c-0.938,0.938-1.723,1.697-2.413,2.313c-1.496-1.335-2.891-2.308-4.178-2.512c-1.854-0.297-3.631,0.744-3.631,2.717
		c0,1.972,1.777,2.987,3.631,2.692c1.192-0.19,2.49-1.051,3.864-2.236c0.551,0.506,1.12,1.066,1.723,1.668l1.646,1.646
		C13.641,22.984,11.639,24.794,7.817,24.442z M13.111,16.26c-1.206,1.018-2.131,1.563-3.143,1.857
		c-1.424,0.413-3.103-0.197-3.103-1.847c0-1.65,1.389-2.31,2.933-2.016C10.871,14.459,11.948,15.216,13.111,16.26z M22.745,27.201
		c0.294,1.543-0.364,2.934-2.015,2.934s-2.26-1.68-1.848-3.104c0.295-1.012,0.842-1.937,1.858-3.142
		C21.784,25.053,22.542,26.129,22.745,27.201z M22.927,21.154c-0.679,0.678-1.327,1.342-1.917,1.989
		c-0.587-0.646-1.235-1.308-1.916-1.989L17.88,19.94c0.862-0.901,1.793-1.899,2.854-2.994c1.175,1.197,2.193,2.289,3.129,3.271
		L22.927,21.154z M34.184,23.902c-3.837,0.353-5.84-1.473-8.919-4.708l0.679-0.678c0.938-0.938,1.724-1.698,2.414-2.314
		c1.494,1.335,2.89,2.308,4.176,2.512c1.855,0.297,3.634-0.744,3.634-2.717c0.001-1.972-1.778-2.987-3.634-2.692
		c-1.192,0.19-2.488,1.049-3.861,2.237c-0.552-0.507-1.122-1.065-1.724-1.669l-1.646-1.645c3.058-3.211,5.061-5.021,8.881-4.67
		c5.325,0.49,7.183,5.324,7.183,8.173S39.509,23.413,34.184,23.902z M28.889,15.74c1.207-1.017,2.131-1.563,3.144-1.856
		c1.424-0.412,3.102,0.197,3.102,1.846c0,1.65-1.39,2.31-2.932,2.017C31.13,17.541,30.053,16.784,28.889,15.74z"/>
</g>
<script type="text/javascript">
    var color = window.location.hash;
    var ids = ['divider-swirl-1'];

    for (var i in ids) {
        var path = document.getElementById(ids[i]);

        if (typeof path == 'object') {
            path.setAttribute('fill', color);
        }
    };
</script>
</svg>