<?xml version="1.0" encoding="utf-8"?>
<!-- Generator: Adobe Illustrator 16.0.0, SVG Export Plug-In . SVG Version: 6.00 Build 0)  -->
<!DOCTYPE svg PUBLIC "-//W3C//DTD SVG 1.1//EN" "http://www.w3.org/Graphics/SVG/1.1/DTD/svg11.dtd">
<svg version="1.1" id="Layer_3" xmlns="http://www.w3.org/2000/svg" xmlns:xlink="http://www.w3.org/1999/xlink" x="0px" y="0px"
	 width="42px" height="32px" viewBox="0 0 42 32" enable-background="new 0 0 42 32" xml:space="preserve">
<path id="divider-swirl-5-1" fill="#FF0000" d="M29.712,22.459c-0.342-1.341-1.139-2.787-2.259-3.911c-1.119-1.124-2.563-1.925-3.905-2.264
	c-0.672-0.17-1.291-0.252-1.761-0.273c-0.132-0.015-0.254-0.012-0.365-0.008c0-0.002,0.002-0.002,0.002-0.004
	c0.11,0.004,0.232,0.006,0.363-0.008c0.47-0.021,1.089-0.102,1.761-0.272c1.343-0.34,2.786-1.141,3.905-2.265
	c1.12-1.124,1.917-2.571,2.259-3.911c0.171-0.671,0.254-1.289,0.276-1.756c0.024-0.221,0.002-0.438,0.004-0.567
	c-0.002-0.134-0.004-0.206-0.004-0.206s-0.073-0.002-0.206-0.004c-0.13,0.002-0.347-0.022-0.567,0.003
	c-0.468,0.023-1.085,0.106-1.756,0.277c-1.341,0.342-2.787,1.139-3.911,2.259c-1.124,1.119-1.924,2.563-2.265,3.905
	c-0.171,0.672-0.252,1.291-0.272,1.761c-0.015,0.13-0.012,0.253-0.008,0.363c-0.002,0-0.003,0.002-0.005,0.002
	c0.004-0.111,0.006-0.233-0.008-0.365c-0.021-0.47-0.102-1.088-0.272-1.761c-0.34-1.342-1.141-2.786-2.265-3.905
	c-1.124-1.12-2.571-1.917-3.911-2.259c-0.671-0.171-1.289-0.254-1.756-0.277c-0.221-0.025-0.438-0.001-0.567-0.003
	c-0.134,0.002-0.206,0.004-0.206,0.004s-0.002,0.072-0.004,0.206c0.002,0.129-0.022,0.346,0.003,0.567
	c0.023,0.468,0.106,1.085,0.277,1.756c0.342,1.34,1.139,2.787,2.259,3.911c1.119,1.124,2.563,1.924,3.905,2.265
	c0.672,0.171,1.291,0.252,1.761,0.272c0.143,0.016,0.273,0.012,0.39,0.008c0,0.002,0.002,0.003,0.002,0.005
	c-0.117-0.004-0.249-0.008-0.392,0.008c-0.47,0.021-1.088,0.103-1.761,0.273c-1.342,0.339-2.786,1.14-3.905,2.264
	c-1.12,1.124-1.917,2.57-2.259,3.911c-0.171,0.671-0.254,1.288-0.277,1.756c-0.025,0.221-0.001,0.438-0.003,0.567
	c0.002,0.133,0.004,0.206,0.004,0.206s0.072,0.002,0.206,0.004c0.129-0.002,0.346,0.021,0.567-0.004
	c0.468-0.022,1.085-0.105,1.756-0.276c1.34-0.342,2.787-1.139,3.911-2.259c1.124-1.119,1.924-2.563,2.265-3.905
	c0.171-0.672,0.252-1.291,0.272-1.761c0.016-0.144,0.012-0.275,0.008-0.392c0.002,0,0.003,0.002,0.006,0.002
	c-0.004,0.116-0.008,0.247,0.007,0.39c0.021,0.47,0.102,1.089,0.272,1.761c0.34,1.342,1.141,2.786,2.265,3.905
	c1.124,1.12,2.57,1.917,3.911,2.259c0.671,0.171,1.288,0.254,1.756,0.276c0.221,0.024,0.438,0.002,0.567,0.004
	c0.133-0.002,0.206-0.004,0.206-0.004s0.002-0.073,0.004-0.206c-0.002-0.13,0.021-0.347-0.004-0.567
	C29.966,23.747,29.883,23.13,29.712,22.459z"/>
<path id="divider-swirl-5-2" fill="#FF0000" d="M28,16c0,0,0.054-0.056,0.157-0.162c0.103-0.096,0.253-0.281,0.445-0.431
	c0.382-0.341,0.929-0.753,1.585-1.138C31.5,13.508,33.25,12.988,35,13c0.875,0.001,1.75,0.109,2.571,0.334
	c0.819,0.227,1.585,0.548,2.241,0.926c0.656,0.385,1.203,0.799,1.585,1.142c0.192,0.151,0.343,0.336,0.445,0.434
	C41.946,15.943,42,16,42,16s-0.054,0.057-0.157,0.163c-0.103,0.097-0.253,0.283-0.445,0.434c-0.382,0.343-0.929,0.757-1.585,1.143
	c-0.656,0.377-1.422,0.699-2.241,0.926C36.75,18.891,35.875,18.998,35,19c-1.75,0.012-3.5-0.509-4.813-1.271
	c-0.656-0.384-1.203-0.795-1.585-1.136c-0.192-0.15-0.343-0.335-0.445-0.432C28.054,16.056,28,16,28,16z"/>
<path id="divider-swirl-5-3" fill="#FF0000" d="M0,16c0,0,0.054-0.056,0.157-0.162c0.103-0.096,0.253-0.281,0.445-0.431
	c0.382-0.341,0.929-0.753,1.585-1.138C3.5,13.508,5.25,12.988,7,13c0.875,0.001,1.75,0.109,2.571,0.334
	c0.819,0.227,1.585,0.548,2.241,0.926c0.656,0.385,1.203,0.799,1.585,1.142c0.192,0.151,0.343,0.336,0.445,0.434
	C13.946,15.943,14,16,14,16s-0.054,0.057-0.157,0.163c-0.103,0.097-0.253,0.283-0.445,0.434c-0.382,0.343-0.929,0.757-1.585,1.143
	c-0.656,0.377-1.422,0.699-2.241,0.926C8.75,18.891,7.875,18.998,7,19c-1.75,0.012-3.5-0.509-4.813-1.271
	c-0.656-0.384-1.203-0.795-1.585-1.136c-0.192-0.15-0.343-0.335-0.445-0.432C0.054,16.056,0,16,0,16z"/>
<script type="text/javascript">
    var color = window.location.hash;
    var ids = ['divider-swirl-5-1', 'divider-swirl-5-2', 'divider-swirl-5-3'];

    for (var i in ids) {
        var path = document.getElementById(ids[i]);

        if (typeof path == 'object') {
            path.setAttribute('fill', color);
        }
    };
</script>
</svg>
