<?xml version="1.0" encoding="utf-8"?>
<!-- Generator: Adobe Illustrator 16.0.0, SVG Export Plug-In . SVG Version: 6.00 Build 0)  -->
<!DOCTYPE svg PUBLIC "-//W3C//DTD SVG 1.1//EN" "http://www.w3.org/Graphics/SVG/1.1/DTD/svg11.dtd">
<svg version="1.1" id="Layer_3" xmlns="http://www.w3.org/2000/svg" xmlns:xlink="http://www.w3.org/1999/xlink" x="0px" y="0px"
	 width="42px" height="32px" viewBox="0 0 42 32" enable-background="new 0 0 42 32" xml:space="preserve">
<g>
	<path id="divider-swirl-3-1" fill="#FF0000" d="M20.999,28C17.4,19.914,18.067,20.8,12,16.001c6.067-4.802,5.401-3.912,8.999-12.001
		c3.604,8.089,2.933,7.2,9.001,12.001C23.932,20.801,24.602,19.914,20.999,28z"/>
</g>
<g>
	<path id="divider-swirl-3-2" fill="#FF0000" d="M36,24c-2.4-5.39-1.955-4.8-6-7.999c4.045-3.201,3.601-2.608,6-8c2.403,5.393,1.954,4.8,6,8
		C37.954,19.201,38.401,18.61,36,24z"/>
</g>
<g>
	<path id="divider-swirl-3-3" fill="#FF0000" d="M6,24c-2.4-5.39-1.955-4.8-6-7.999c4.045-3.201,3.601-2.608,6-8c2.403,5.393,1.954,4.8,6,8
		C7.954,19.201,8.401,18.61,6,24z"/>
</g>
<script type="text/javascript">
    var color = window.location.hash;
    var ids = ['divider-swirl-3-1', 'divider-swirl-3-2', 'divider-swirl-3-3'];

    for (var i in ids) {
        var path = document.getElementById(ids[i]);

        if (typeof path == 'object') {
            path.setAttribute('fill', color);
        }
    };
</script>
</svg>
