<?xml version="1.0" encoding="utf-8"?>
<!-- Generator: Adobe Illustrator 16.0.0, SVG Export Plug-In . SVG Version: 6.00 Build 0)  -->
<!DOCTYPE svg PUBLIC "-//W3C//DTD SVG 1.1//EN" "http://www.w3.org/Graphics/SVG/1.1/DTD/svg11.dtd">
<svg version="1.1" id="Layer_3" xmlns="http://www.w3.org/2000/svg" xmlns:xlink="http://www.w3.org/1999/xlink" x="0px" y="0px"
	 width="42px" height="32px" viewBox="0 0 42 32" enable-background="new 0 0 42 32" xml:space="preserve">
<g>
	<path id="divider-swirl-2" fill="#FF0000" d="M34.099,10.38c4.396-0.818,8.72,4.016,5.489,8.282c-2.578,3.406-7.003,2.738-11.889,0.924
		c0.409-0.983,0.772-2.011,1.093-3.035c0.256-0.823,0.48-1.644,0.687-2.447c2.082-0.384,3.902-0.269,5.294,0.696
		c3.46,2.402,0.237,5.487-2.206,3.679c3.269,2.644,6.791-1.969,3.006-4.527c-1.538-1.04-3.589-1.049-5.926-0.507
		c0.408-1.653,0.731-3.194,1.035-4.436c0.134-0.487,0.246-0.949,0.388-1.323c0.067-0.191,0.145-0.363,0.217-0.515
		c0.067-0.168,0.146-0.299,0.229-0.413c0.077-0.131,0.164-0.212,0.245-0.297c0.079-0.093,0.159-0.157,0.233-0.189
		c0.155-0.091,0.238-0.139,0.238-0.139s-0.085-0.029-0.276-0.065c-0.099-0.026-0.218-0.032-0.359-0.011
		c-0.146,0.009-0.323,0.033-0.489,0.109c-0.366,0.119-0.768,0.358-1.146,0.69c-0.396,0.327-0.774,0.733-1.147,1.204
		c-0.728,0.941-1.39,2.113-1.968,3.387c-0.478,1.051-0.886,2.178-1.261,3.312c-0.819,0.323-1.656,0.674-2.503,1.044
		c1.247-4.136,2.243-8.214,3.229-11.182c0.293-0.765,0.55-1.483,0.849-2.064c0.146-0.296,0.298-0.564,0.452-0.792
		c0.144-0.253,0.303-0.448,0.464-0.613c0.149-0.192,0.314-0.304,0.462-0.417c0.145-0.126,0.284-0.208,0.409-0.242
		c0.254-0.104,0.39-0.161,0.39-0.161S29.188,0.318,28.91,0.29c-0.15-0.024-0.328-0.013-0.534,0.042
		c-0.215,0.037-0.469,0.091-0.707,0.229c-0.261,0.113-0.537,0.263-0.798,0.467c-0.294,0.184-0.543,0.435-0.817,0.701
		c-0.554,0.533-1.079,1.196-1.592,1.954c-0.499,0.757-1.011,1.596-1.468,2.509c-0.462,0.912-0.914,1.885-1.327,2.901
		c-0.839,2.031-1.586,4.228-2.271,6.421c-0.045,0.147-0.088,0.294-0.133,0.441c-0.683-0.3-1.36-0.593-2.027-0.868
		c0.622-2.261,1.063-4.434,1.465-6.079c0.134-0.487,0.246-0.949,0.387-1.323c0.068-0.191,0.145-0.363,0.217-0.515
		c0.068-0.168,0.146-0.299,0.229-0.413c0.077-0.131,0.165-0.212,0.245-0.297c0.08-0.093,0.16-0.157,0.233-0.189
		c0.155-0.091,0.238-0.139,0.238-0.139s-0.085-0.029-0.276-0.065c-0.099-0.026-0.218-0.032-0.359-0.011
		c-0.147,0.009-0.323,0.033-0.49,0.109c-0.366,0.12-0.767,0.358-1.146,0.691c-0.395,0.326-0.774,0.733-1.147,1.204
		c-0.728,0.941-1.389,2.113-1.967,3.387c-0.352,0.774-0.664,1.59-0.958,2.418c-2.984-0.93-5.61-1.18-7.481,0.085
		c-3.786,2.558-0.263,7.171,3.005,4.527c-2.442,1.809-5.665-1.276-2.206-3.679c1.655-1.148,3.919-1.091,6.508-0.423
		c-0.125,0.369-0.259,0.734-0.375,1.104c-0.519,1.674-0.927,3.35-1.288,4.851c-3.981,1.174-7.482,1.21-9.662-1.67
		c-3.23-4.267,1.094-9.101,5.489-8.282C2.218,8.907-2.32,15.097,1.288,19.525c2.426,2.978,6.315,2.709,10.666,1.303
		c-0.187,0.778-0.364,1.506-0.538,2.144c-0.143,0.482-0.266,0.94-0.421,1.303c-0.153,0.375-0.309,0.678-0.483,0.905
		c-0.172,0.207-0.31,0.397-0.5,0.467c-0.159,0.09-0.244,0.138-0.244,0.138s0.094,0.023,0.271,0.067
		c0.088,0.023,0.191,0.048,0.342,0.027c0.142-0.009,0.35-0.022,0.51-0.093c0.357-0.11,0.792-0.32,1.173-0.646
		c0.412-0.313,0.803-0.713,1.187-1.178c0.997-1.222,1.841-2.838,2.55-4.581c0.931-0.388,1.868-0.796,2.805-1.211
		c-1.003,3.46-1.872,6.762-2.771,9.238c-0.308,0.757-0.581,1.468-0.904,2.03c-0.148,0.301-0.322,0.541-0.481,0.771
		c-0.148,0.254-0.33,0.417-0.491,0.592c-0.16,0.194-0.319,0.267-0.465,0.392c-0.137,0.126-0.301,0.191-0.433,0.232
		c-0.258,0.104-0.396,0.158-0.396,0.158s0.147,0.017,0.423,0.047c0.139,0.019,0.303,0.034,0.519-0.02
		c0.207-0.04,0.499-0.073,0.732-0.204c0.25-0.114,0.554-0.234,0.817-0.433c0.292-0.177,0.575-0.406,0.845-0.671
		c0.58-0.512,1.124-1.165,1.653-1.914c0.267-0.373,0.513-0.771,0.787-1.183c0.247-0.415,0.495-0.854,0.738-1.306
		c0.474-0.907,0.94-1.877,1.363-2.893c0.436-1.015,0.838-2.07,1.219-3.149c0.25-0.691,0.482-1.395,0.71-2.1
		c0.665,0.296,1.332,0.591,1.999,0.882c-0.407,1.62-0.743,3.127-1.071,4.331c-0.144,0.481-0.266,0.939-0.422,1.302
		c-0.153,0.375-0.309,0.678-0.483,0.905c-0.172,0.207-0.31,0.397-0.5,0.467c-0.159,0.09-0.244,0.138-0.244,0.138
		s0.094,0.023,0.271,0.067c0.088,0.023,0.191,0.048,0.342,0.027c0.142-0.009,0.35-0.022,0.51-0.093
		c0.357-0.11,0.792-0.319,1.173-0.646c0.412-0.313,0.804-0.712,1.187-1.177c0.891-1.093,1.66-2.503,2.32-4.034
		c5.332,2.092,10.279,3.134,13.161-0.403C44.32,15.097,39.782,8.907,34.099,10.38z M15.979,18.93
		c0.303-0.781,0.583-1.58,0.833-2.379c0.11-0.354,0.214-0.708,0.314-1.06c0.667,0.256,1.343,0.53,2.029,0.82
		c-0.146,0.482-0.289,0.96-0.428,1.439C17.806,18.16,16.888,18.557,15.979,18.93z M22.573,17.437
		c0.091-0.284,0.184-0.568,0.274-0.852c0.032-0.105,0.063-0.209,0.095-0.314c0.837-0.353,1.659-0.683,2.464-0.98
		c-0.02,0.064-0.044,0.127-0.064,0.191c-0.296,0.954-0.555,1.908-0.79,2.831C23.895,18.027,23.233,17.733,22.573,17.437z"/>
</g>
<script type="text/javascript">
    var color = window.location.hash;
    var ids = ['divider-swirl-2'];

    for (var i in ids) {
        var path = document.getElementById(ids[i]);

        if (typeof path == 'object') {
            path.setAttribute('fill', color);
        }
    };
</script>
</svg>
